<svg width="26" height="26" viewBox="0 0 26 26" fill="none" xmlns="http://www.w3.org/2000/svg">
<g clip-path="url(#clip0_286_3631)">
<path d="M24.2938 17.1006L21.7602 15.3366C22.1707 13.8607 22.1973 12.2614 21.7527 10.6593L24.2938 8.91682L22.2656 5.47937L19.4389 6.74601C18.3388 5.65988 16.9378 4.83775 15.2987 4.41369L15.0284 1.38742H10.9716L10.7013 4.41369C9.06219 4.83775 7.66112 5.65988 6.56112 6.74601L3.73437 5.47937L1.70624 8.91682L4.24728 10.6593C3.80278 12.2614 3.82928 13.8607 4.23977 15.3366L1.70627 17.1006L3.73437 20.5207L6.56112 19.254C7.66112 20.3401 9.06219 21.1623 10.7013 21.5863L10.9716 24.6125H15.0284L15.2987 21.5863C16.9378 21.1623 18.3388 20.3401 19.4389 19.254L22.2656 20.5207L24.2938 17.1006ZM15.7997 0C16.1742 0 16.4798 0.28876 16.497 0.651331L16.7456 3.43404C17.8 3.82802 18.7578 4.37655 19.5988 5.04548L22.1823 3.86575C22.5116 3.69911 22.9197 3.81391 23.1069 4.13152L25.9063 8.8772C26.0936 9.19481 25.9911 9.59845 25.679 9.79426L23.3425 11.3965C23.5212 12.4877 23.5151 13.5742 23.344 14.622L25.679 16.2232C25.9911 16.419 26.0936 16.8227 25.9063 17.1403L23.1069 21.8685C22.9197 22.1861 22.5116 22.3009 22.1823 22.1342L19.5988 20.9546C18.7578 21.6235 17.8 22.1719 16.7456 22.566L16.497 25.3487C16.4798 25.7112 16.1742 26 15.7997 26H10.2004C9.82587 26 9.52024 25.7112 9.50299 25.3487L9.25439 22.566C8.20006 22.1719 7.24221 21.6235 6.40117 20.9546L3.81772 22.1342C3.48848 22.3009 3.08029 22.1861 2.89305 21.8685L0.0936523 17.1403C-0.0936024 16.8227 0.00895426 16.419 0.320966 16.2232L2.65596 14.622C2.48493 13.5742 2.47876 12.4877 2.65751 11.3965L0.320966 9.79426C0.00895426 9.59845 -0.0936024 9.19481 0.0936523 8.8772L2.89305 4.13152C3.08029 3.81391 3.48848 3.69911 3.81772 3.86576L6.40117 5.04548C7.24221 4.37655 8.20006 3.82802 9.25439 3.43404L9.50299 0.651331C9.52024 0.28876 9.82587 0 10.2004 0H15.7997ZM13 8.22425C15.699 8.22425 17.887 10.3669 17.887 13.01C17.887 15.6531 15.699 17.7958 13 17.7958C10.301 17.7958 8.11303 15.6531 8.11303 13.01C8.11303 10.3669 10.301 8.22425 13 8.22425ZM13 9.59162C11.0722 9.59162 9.50931 11.1221 9.50931 13.01C9.50931 14.898 11.0722 16.4284 13 16.4284C14.9278 16.4284 16.4907 14.898 16.4907 13.01C16.4907 11.1221 14.9278 9.59162 13 9.59162Z" fill="black"/>
</g>
<defs>
<clipPath id="clip0_286_3631">
<rect width="26" height="26" fill="white"/>
</clipPath>
</defs>
</svg>
