<svg width="50" height="50" viewBox="0 0 50 50" fill="none" xmlns="http://www.w3.org/2000/svg">
<mask id="mask0_250_3488" style="mask-type:alpha" maskUnits="userSpaceOnUse" x="0" y="0" width="50" height="50">
<circle cx="25" cy="25" r="25" transform="matrix(-1 0 0 1 50 0)" fill="#78AEB1"/>
</mask>
<g mask="url(#mask0_250_3488)">
<circle cx="25" cy="25" r="25" transform="matrix(-1 0 0 1 50 0)" fill="#78AEB1"/>
<path fill-rule="evenodd" clip-rule="evenodd" d="M34.1177 18.2353C34.1177 18.734 34.0909 19.2249 34.0391 19.7059C34.0391 19.7059 34.3627 19.1508 34.7059 18.9706C34.7397 18.9528 34.7709 18.9346 34.8007 18.9171C34.9129 18.8514 35.0062 18.7967 35.1471 18.8235C35.38 18.8678 35.3494 19.0982 35.316 19.3504V19.3504V19.3504C35.3001 19.4698 35.2836 19.5941 35.2942 19.7059C35.2942 19.7059 35.2905 20.9715 35.1471 21.7647C35.0306 22.4091 34.9469 22.7735 34.7059 23.3823C34.5169 23.86 34.1177 24.5588 34.1177 24.5588L34.0226 24.5572C33.7351 26.9797 32.811 29.1416 31.4706 30.7666V34.4118L32.3529 35.8824L30.4412 42.5H19.7059L18.2966 34.4118V29.1176C17.5193 27.7057 17.001 26.0521 16.8283 24.2649L16.8149 24.2647C16.8149 24.2647 16.4973 24.346 16.3236 24.2647C16.1523 24.1845 16.1332 24.0305 16.112 23.8599C16.0985 23.7515 16.0842 23.6364 16.0295 23.5294C15.921 23.3174 15.7944 23.1748 15.6691 23.0337C15.5345 22.8821 15.4014 22.7323 15.2942 22.5C15.061 21.9947 15.0438 21.617 15.0216 21.132C15.016 21.0081 15.01 20.8771 15 20.7353C14.9948 20.6604 14.9894 20.5902 14.9842 20.5232C14.9539 20.1289 14.9323 19.8484 15 19.4118C15.0187 19.2917 15.0181 19.1664 15.0175 19.0456C15.016 18.7504 15.0147 18.4818 15.2942 18.3823C15.4394 18.3306 15.5419 18.3486 15.6836 18.3734L15.7353 18.3823C16.3098 18.4789 16.8149 19.4118 16.8149 19.4118C16.7817 19.0253 16.7648 18.6328 16.7648 18.2353C16.7648 12.2251 20.6493 7.35294 25.4412 7.35294C30.2331 7.35294 34.1177 12.2251 34.1177 18.2353Z" fill="#EACBAF"/>
<path d="M29.5588 9.70588C28.1165 9.13664 27.0949 10.0724 25.5882 9.70588C24.6867 9.48659 24.3091 8.86688 23.3823 8.82353C22.048 8.76111 21.3245 9.44409 20.2941 10.2941C19.5397 10.9165 19.0125 11.2875 18.6764 12.2059C18.3409 13.1227 19.012 13.789 18.6764 14.7059C18.3403 15.6243 17.3621 15.6879 17.0588 16.6176C16.8094 17.382 17.0588 18.6765 17.0588 18.6765V21.3235C17.0588 21.3235 16.1339 19.4854 15.7353 18.2353C15.3076 16.8939 15.1182 16.1088 15 14.7059C14.918 13.733 14.7477 13.149 15 12.2059C15.3005 11.0825 15.6903 10.4075 16.6176 9.70588C17.4866 9.04842 18.1791 8.91735 19.2647 8.82353H20.2941L19.8529 8.38235C19.8529 8.38235 19.6696 7.36927 19.8529 6.76471C20.1712 5.7147 21.9117 4.85294 21.9117 4.85294C21.9117 4.85294 24.1117 3.95666 25.5882 3.97059C27.0089 3.98399 29.1176 4.85294 29.1176 4.85294C29.1176 4.85294 31.6083 6.36492 32.9411 7.64706C34.1176 8.77881 34.9703 9.37135 35.5882 10.8824C36.1572 12.2736 36.1004 13.2045 36.0294 14.7059C35.9544 16.2925 35.2941 18.9706 35.2941 18.9706C35.2941 18.9706 35 18.5294 34.5588 19.1176C34.1176 19.7059 33.8235 21.7647 33.8235 21.7647V19.7059C33.8235 19.7059 34.0609 18.1529 33.8235 17.2059C33.548 16.1072 32.6284 15.8046 32.3529 14.7059C32.1155 13.7589 32.6705 13.1291 32.3529 12.2059C31.8766 10.8213 30.9207 10.2434 29.5588 9.70588Z" fill="black"/>
<path d="M22.5 39.2647C23.1345 39.6623 23.5731 39.7802 24.1177 40.2941C24.8128 40.9501 25.4412 42.3529 25.4412 42.3529C25.4412 42.3529 26.121 41.4248 26.6177 40.8824C27.8048 39.5858 29.1136 39.5103 30.1471 38.0882C30.8569 37.1115 31.1765 35.2941 31.1765 35.2941L31.4706 32.2059H31.6177L32.353 33.9706L45.7353 40.8824C45.7353 40.8824 47.1199 41.2074 47.7941 41.7647C48.2023 42.102 48.6765 42.7941 48.6765 42.7941L52.2059 50.2941H-1.91174C-1.91174 50.2941 -1.39679 48.5837 -1.02939 47.5C-0.358193 45.5202 -0.464032 44.0992 0.882374 42.5C1.80709 41.4017 2.61978 41.0766 3.82355 40.2941C6.17111 38.7681 10.2941 37.2059 10.2941 37.2059L16.9118 33.8235L18.2353 32.2059C18.2353 32.2059 18.2229 33.238 18.2353 33.8235C18.2535 34.6771 18.3082 34.965 18.6765 35.7353C19.0546 36.5262 19.2564 37.0048 19.853 37.6471C20.6775 38.5347 21.4734 38.6214 22.5 39.2647Z" fill="#12373F"/>
</g>
</svg>
